<?xml version="1.0" encoding="UTF-8"?>
<svg width="1024px" height="1024px" viewBox="0 0 1024 1024" version="1.1" xmlns="http://www.w3.org/2000/svg" xmlns:xlink="http://www.w3.org/1999/xlink">
    <title>icf</title>
    <g id="icf" stroke="none" stroke-width="1" fill="none" fill-rule="evenodd">
        <g id="Group" stroke="#FFFFFF" stroke-width="18.9644296">
            <polygon id="Path" points="1023.99998 512.008936 1023.8245 525.402339 1023.29791 538.804936 1022.42038 552.189141 1021.19426 565.527458 1019.61974 578.829148 1017.6949 592.103251 1015.42333 605.322438 1012.80969 618.459523 1009.8534 631.523762 1006.55176 644.523996 1002.9105 657.433223 998.938334 670.225252 994.63265 682.908912 989.990025 695.492752 985.019328 707.950644 979.731622 720.257317 974.123723 732.421424 968.19133 744.451122 961.945659 756.32119 955.400684 768.007823 948.552008 779.519113 941.394351 790.862607 933.942291 802.014901 926.211433 812.953267 918.19702 823.685612 909.89315 834.219018 901.316178 844.53127 892.484157 854.601498 883.391948 864.437444 874.032258 874.044896 864.42448 883.40425 854.588217 892.496116 844.51768 901.327785 834.205129 909.904397 823.671433 918.2079 812.938809 926.221938 802.000172 933.952414 790.84772 941.404242 779.503776 948.561186 767.992252 955.409458 756.305483 961.954187 744.435113 968.199277 732.405293 974.131417 720.24099 979.738892 707.934204 985.026341 695.476066 989.99643 682.892065 994.638616 670.208196 998.94368 657.416086 1002.91557 644.506685 1006.55621 631.506384 1009.85757 618.442041 1012.81341 605.304865 1015.42659 592.085628 1017.69788 578.811453 1019.62226 565.509704 1021.19631 552.171309 1022.4216 538.787089 1023.29884 525.384473 1023.82497 511.991064 1023.99998 498.597661 1023.8245 485.195064 1023.29791 471.810859 1022.42038 458.472542 1021.19426 445.170852 1019.61974 431.896749 1017.6949 418.677562 1015.42333 405.540477 1012.80969 392.476238 1009.8534 379.476004 1006.55176 366.566777 1002.9105 353.774748 998.938334 341.091088 994.63265 328.507248 989.990025 316.049356 985.019328 303.742683 979.731622 291.578576 974.123723 279.548878 968.19133 267.67881 961.945659 255.992177 955.400684 244.480887 948.552008 233.137393 941.394351 221.985099 933.942291 211.046733 926.211433 200.314388 918.19702 189.780982 909.89315 179.46873 901.316178 169.398502 892.484157 159.562556 883.391948 149.955104 874.032258 140.59575 864.42448 131.503884 854.588217 122.672215 844.51768 114.095603 834.205129 105.7921 823.671433 97.7780618 812.938809 90.0475855 802.000172 82.5957581 790.84772 75.4388136 779.503776 68.5905418 767.992252 62.0458127 756.305483 55.8007225 744.435113 49.8685828 732.405293 44.2611085 720.24099 38.9736593 707.934204 34.0035701 695.476066 29.3613842 682.892065 25.0563204 670.208197 21.0844251 657.416086 17.443794 644.506685 14.142426 631.506384 11.1865892 618.442041 8.5734081 605.304865 6.30211969 592.085628 4.37773777 578.811453 2.8036889 565.509704 1.57840386 552.171309 0.701157943 538.787089 0.175034069 525.384473 1.90853625e-05 511.991064 0.175501587 498.597661 0.7020933 485.195064 1.57962001 471.810859 2.80574263 458.472542 4.38025564 445.170852 6.30510035 431.896749 8.57666537 418.677562 11.190305 405.540477 14.1465978 392.476238 17.4482389 379.476004 21.0895014 366.566777 25.0616657 353.774748 29.3673498 341.091088 34.0099749 328.507248 38.9806717 316.049356 44.2683777 303.742683 49.8762767 291.578576 55.8086696 279.548878 62.0543408 267.67881 68.5993162 255.992177 75.4479921 244.480887 82.6056489 233.137393 90.0577087 221.985099 97.7885668 211.046733 105.80298 200.314388 114.10685 189.780982 122.683822 179.46873 131.515843 169.398502 140.608052 159.562556 149.967742 149.955104 159.57552 140.59575 169.411783 131.503884 179.48232 122.672215 189.794871 114.095603 200.328567 105.7921 211.061191 97.7780618 221.999828 90.0475855 233.15228 82.5957581 244.496224 75.4388136 256.007748 68.5905417 267.694517 62.0458127 279.564887 55.8007225 291.594707 49.8685828 303.75901 44.2611085 316.065796 38.9736593 328.523934 34.0035701 341.107935 29.3613842 353.791804 25.0563204 366.583914 21.0844251 379.493315 17.443794 392.493616 14.1424259 405.557959 11.1865892 418.695135 8.5734081 431.914372 6.30211969 445.188547 4.37773777 458.490296 2.80368889 471.828691 1.57840386 485.212911 0.701157939 498.615527 0.175034067 512.008936 1.90838537e-05 525.402339 0.175501585 538.804936 0.702093296 552.189141 1.57962001 565.527458 2.80574263 578.829148 4.38025562 592.103251 6.30510034 605.322438 8.57666536 618.459523 11.190305 631.523762 14.1465978 644.523996 17.4482389 657.433223 21.0895014 670.225252 25.0616657 682.908912 29.3673498 695.492752 34.0099749 707.950644 38.9806717 720.257317 44.2683778 732.421424 49.8762767 744.451122 55.8086696 756.32119 62.0543408 768.007823 68.5993162 779.519113 75.4479921 790.862607 82.6056489 802.014901 90.0577087 812.953267 97.7885668 823.685612 105.80298 834.219018 114.10685 844.53127 122.683822 854.601498 131.515843 864.437444 140.608052 874.044896 149.967742 883.40425 159.57552 892.496116 169.411783 901.327785 179.48232 909.904397 189.794871 918.2079 200.328567 926.221938 211.061191 933.952414 221.999828 941.404242 233.15228 948.561186 244.496224 955.409458 256.007748 961.954187 267.694517 968.199277 279.564887 974.131417 291.594707 979.738892 303.75901 985.026341 316.065796 989.99643 328.523934 994.638616 341.107935 998.94368 353.791803 1002.91557 366.583914 1006.55621 379.493315 1009.85757 392.493616 1012.81341 405.557959 1015.42659 418.695135 1017.69788 431.914372 1019.62226 445.188547 1021.19631 458.490296 1022.4216 471.828691 1023.29884 485.212911 1023.82497 498.615527 1023.99998 512.008936"></polygon>
            <path d="M512.054325,768.001425 L512.054325,832.001069 L512.054325,896.000713 L512.054325,960.000356 L512.054325,1024 M512.054325,0 L512.054325,63.9996438 L512.054325,127.999287 L512.054325,191.998931 L512.054325,255.998575 M511.999996,768.001422 L499.438601,767.693057 L486.907468,766.768705 L474.436785,765.230593 L462.056596,763.082426 L449.796724,760.329379 L437.686705,756.978086 L425.755714,753.036618 L414.032493,748.514473 L402.545284,743.422543 L391.321761,737.773096 L380.388962,731.579742 L369.773226,724.857401 L359.500127,717.622268 L349.594414,709.891773 L340.079949,701.684539 L330.979655,693.020338 L322.315455,683.920044 L314.108222,674.40558 L306.377727,664.499866 L299.142594,654.226766 L292.420254,643.61103 L286.2269,632.678231 L280.577453,621.454708 L275.485524,609.967499 L270.963379,598.244277 L267.021912,586.313286 L263.670619,574.203267 L260.917572,561.943396 L258.769406,549.563206 L257.231294,537.092523 L256.306942,524.56139 L255.998578,511.999996 L256.306943,499.438601 L257.231295,486.907469 L258.769407,474.436786 L260.917574,462.056597 L263.67062,449.796725 L267.021914,437.686707 L270.963381,425.755716 L275.485527,414.032495 L280.577456,402.545286 L286.226903,391.321763 L292.420257,380.388965 L299.142597,369.773229 L306.37773,359.50013 L314.108225,349.594417 L322.315458,340.079952 L330.979658,330.979658 L340.079952,322.315458 L349.594417,314.108225 L359.50013,306.37773 L369.773229,299.142597 L380.388965,292.420257 L391.321763,286.226903 L402.545286,280.577456 L414.032495,275.485527 L425.755716,270.963381 L437.686707,267.021914 L449.796725,263.67062 L462.056597,260.917574 L474.436786,258.769407 L486.907469,257.231295 L499.438601,256.306943 L511.999996,255.998578 M512.054325,768.001419 L512.054325,704.001064 L512.054325,640.000708 L512.054325,576.000353 L512.054325,511.999997 L512.054325,447.999643 L512.054325,383.999289 L512.054325,319.998935 L512.054325,255.998581 M512.000004,768.001422 L524.561399,767.693057 L537.092532,766.768705 L549.563215,765.230593 L561.943404,763.082426 L574.203276,760.329379 L586.313295,756.978086 L598.244286,753.036618 L609.967507,748.514473 L621.454716,743.422543 L632.678239,737.773096 L643.611038,731.579742 L654.226774,724.857401 L664.499873,717.622268 L674.405586,709.891773 L683.920051,701.684539 L693.020345,693.020338 L701.684545,683.920044 L709.891778,674.40558 L717.622273,664.499866 L724.857406,654.226766 L731.579746,643.61103 L737.7731,632.678231 L743.422547,621.454708 L748.514476,609.967499 L753.036621,598.244277 L756.978088,586.313286 L760.329381,574.203267 L763.082428,561.943396 L765.230594,549.563206 L766.768706,537.092523 L767.693058,524.56139 L768.001422,511.999996 L767.693057,499.438601 L766.768705,486.907469 L765.230593,474.436786 L763.082426,462.056597 L760.32938,449.796725 L756.978086,437.686707 L753.036619,425.755716 L748.514473,414.032495 L743.422544,402.545286 L737.773097,391.321763 L731.579743,380.388965 L724.857403,369.773229 L717.62227,359.50013 L709.891775,349.594417 L701.684542,340.079952 L693.020342,330.979658 L683.920048,322.315458 L674.405583,314.108225 L664.49987,306.37773 L654.226771,299.142597 L643.611035,292.420257 L632.678237,286.226903 L621.454714,280.577456 L609.967505,275.485527 L598.244284,270.963381 L586.313293,267.021914 L574.203275,263.67062 L561.943403,260.917574 L549.563214,258.769407 L537.092531,257.231295 L524.561399,256.306943 L512.000004,255.998578 M0,512.054325 L7.10830618,512.054325 L14.2194568,512.054325 L21.3306074,512.054325 L28.441758,512.054325 L35.5529087,512.054325 L42.6640593,512.054325 L49.7752099,512.054325 L56.8863605,512.054325 L63.9975111,512.054325 L71.1086617,512.054325 L78.2198124,512.054325 L85.330963,512.054325 L92.4421136,512.054325 L99.5532642,512.054325 L106.664415,512.054325 L113.775565,512.054325 L120.886716,512.054325 L127.997867,512.054325 L135.109017,512.054325 L142.220168,512.054325 L149.331319,512.054325 L156.442469,512.054325 L163.55362,512.054325 L170.66477,512.054325 L177.775921,512.054325 L184.887072,512.054325 L191.998222,512.054325 L199.109373,512.054325 L206.220523,512.054325 L213.331674,512.054325 L220.442825,512.054325 L227.553975,512.054325 L234.665126,512.054325 L241.776277,512.054325 L248.887427,512.054325 L255.998578,512.054325 L263.109728,512.054325 L270.220879,512.054325 L277.33203,512.054325 L284.44318,512.054325 L291.554331,512.054325 L298.665481,512.054325 L305.776632,512.054325 L312.887783,512.054325 L319.998933,512.054325 L327.110084,512.054325 L334.221235,512.054325 L341.332385,512.054325 L348.443536,512.054325 L355.554686,512.054325 L362.665837,512.054325 L369.776988,512.054325 L376.888138,512.054325 L383.999289,512.054325 L391.11044,512.054325 L398.22159,512.054325 L405.332741,512.054325 L412.443891,512.054325 L419.555042,512.054325 L426.666193,512.054325 L433.777343,512.054325 L440.888494,512.054325 L447.999644,512.054325 L455.110795,512.054325 L462.221946,512.054325 L469.333096,512.054325 L476.444247,512.054325 L483.555398,512.054325 L490.666548,512.054325 L497.777699,512.054325 L504.888849,512.054325 L512,512.054325 L519.111151,512.054325 L526.222301,512.054325 L533.333452,512.054325 L540.444602,512.054325 L547.555753,512.054325 L554.666904,512.054325 L561.778054,512.054325 L568.889205,512.054325 L576.000356,512.054325 L583.111506,512.054325 L590.222657,512.054325 L597.333807,512.054325 L604.444958,512.054325 L611.556109,512.054325 L618.667259,512.054325 L625.77841,512.054325 L632.88956,512.054325 L640.000711,512.054325 L647.111862,512.054325 L654.223012,512.054325 L661.334163,512.054325 L668.445314,512.054325 L675.556464,512.054325 L682.667615,512.054325 L689.778765,512.054325 L696.889916,512.054325 L704.001067,512.054325 L711.112217,512.054325 L718.223368,512.054325 L725.334519,512.054325 L732.445669,512.054325 L739.55682,512.054325 L746.66797,512.054325 L753.779121,512.054325 L760.890272,512.054325 L768.001422,512.054325 L775.112573,512.054325 L782.223723,512.054325 L789.334874,512.054325 L796.446025,512.054325 L803.557175,512.054325 L810.668326,512.054325 L817.779477,512.054325 L824.890627,512.054325 L832.001778,512.054325 L839.112928,512.054325 L846.224079,512.054325 L853.33523,512.054325 L860.44638,512.054325 L867.557531,512.054325 L874.668681,512.054325 L881.779832,512.054325 L888.890983,512.054325 L896.002133,512.054325 L903.113284,512.054325 L910.224435,512.054325 L917.335585,512.054325 L924.446736,512.054325 L931.557886,512.054325 L938.669037,512.054325 L945.780188,512.054325 L952.891338,512.054325 L960.002489,512.054325 L967.113639,512.054325 L974.22479,512.054325 L981.335941,512.054325 L988.447091,512.054325 L995.558242,512.054325 L1002.66939,512.054325 L1009.78054,512.054325 L1016.89169,512.054325 L1024,512.054325 M392.980713,803.536522 L379.215305,803.247141 L365.018351,802.073096 L350.411603,799.933785 L335.425968,796.743549 L320.103356,792.41237 L304.498696,786.847003 L288.682083,779.952659 L272.740955,771.635358 L264.756276,766.914705 L256.782148,761.805065 L248.83524,756.296459 L240.93362,750.379707 L233.096767,744.046602 L225.345573,737.290103 L217.702318,730.104528 L210.190623,722.485768 L202.835377,714.431501 L195.662633,705.94141 L188.699472,697.017395 L181.973835,687.663784 L175.514312,677.887528 L169.349907,667.698373 L163.509761,657.109008 L158.022842,646.135178 L152.917615,634.795754 L148.221683,623.11276 L143.961412,611.111339 L140.161553,598.819668 L136.844867,586.268804 L134.031753,573.492475 L131.739914,560.526807 L129.984047,547.409996 L128.775579,534.181921 L128.122462,520.883725 L128.029021,507.557354 L128.495878,494.245079 L129.519936,480.98901 L131.094439,467.830608 L133.209097,454.810224 L135.850277,441.966659 L139.001246,429.336767 L142.642467,416.95511 L146.751926,404.853663 L151.305496,393.061581 L156.277305,381.605032 L161.640121,370.507084 L167.365726,359.787661 L173.425281,349.463544 L179.789666,339.548429 L186.429801,330.05303 L193.316928,320.98521 L200.422866,312.35015 L207.720227,304.150539 L215.182598,296.386774 L222.784689,289.057177 L230.502446,282.15821 L240.937119,273.617572 L251.487158,265.817469 L262.106903,258.738056 L272.755151,252.35659 L283.395053,246.648141 L293.993951,241.58622 L304.523155,237.143333 L314.957684,233.291444 L325.275988,230.002377 L335.459661,227.248131 L345.493152,225.001151 L355.36348,223.234528 L365.059968,221.922162 L374.573981,221.038878 L383.898694,220.560505 L393.028868,220.463936 M437.500402,694.486002 L427.560257,678.644598 L418.742962,662.386439 L411.001329,645.77835 L404.29444,628.878222 L398.587303,611.736771 L393.850522,594.398976 L390.059981,576.905294 L387.196578,559.292682 L385.246003,541.595487 L384.198572,523.846228 L384.049103,506.076314 L384.796858,488.316715 L386.445533,470.598621 L389.003301,452.954104 L392.482915,435.416819 L396.901856,418.022759 L400.381756,406.521661 L404.297196,395.11421 L408.657158,383.813977 L413.471731,372.635665 L418.752154,361.59529 L424.51086,350.710392 L430.761524,340.000269 L437.519104,329.486251 M586.499598,694.486002 L596.439743,678.644598 L605.257038,662.386439 L612.998671,645.77835 L619.70556,628.878222 L625.412697,611.736771 L630.149478,594.398976 L633.940019,576.905294 L636.803422,559.292682 L638.753997,541.595487 L639.801428,523.846228 L639.950897,506.076314 L639.203142,488.316715 L637.554467,470.598621 L634.996699,452.954104 L631.517085,435.416819 L627.098144,418.022759 L623.618244,406.521661 L619.702804,395.11421 L615.342842,383.813977 L610.528269,372.635665 L605.247846,361.59529 L599.48914,350.710392 L593.238476,340.000269 L586.480896,329.486251 M631.019287,803.536522 L644.784695,803.247141 L658.981649,802.073096 L673.588397,799.933785 L688.574032,796.743549 L703.896644,792.41237 L719.501304,786.847003 L735.317917,779.952659 L751.259045,771.635358 L759.243724,766.914705 L767.217852,761.805065 L775.16476,756.296459 L783.06638,750.379707 L790.903233,744.046602 L798.654427,737.290103 L806.297682,730.104528 L813.809377,722.485768 L821.164623,714.431501 L828.337367,705.94141 L835.300528,697.017395 L842.026165,687.663784 L848.485688,677.887528 L854.650093,667.698373 L860.490239,657.109008 L865.977158,646.135178 L871.082385,634.795754 L875.778317,623.11276 L880.038588,611.111339 L883.838447,598.819668 L887.155133,586.268804 L889.968247,573.492475 L892.260086,560.526807 L894.015953,547.409996 L895.224421,534.181921 L895.877538,520.883725 L895.970979,507.557354 L895.504122,494.245079 L894.480064,480.98901 L892.905561,467.830608 L890.790903,454.810224 L888.149723,441.966659 L884.998754,429.336767 L881.357533,416.95511 L877.248074,404.853663 L872.694504,393.061581 L867.722695,381.605032 L862.359879,370.507084 L856.634274,359.787661 L850.574719,349.463544 L844.210334,339.548429 L837.570199,330.05303 L830.683072,320.98521 L823.577134,312.35015 L816.279773,304.150539 L808.817402,296.386774 L801.215311,289.057177 L793.497554,282.15821 L783.062881,273.617572 L772.512842,265.817469 L761.893097,258.738056 L751.244849,252.35659 L740.604947,246.648141 L730.006049,241.58622 L719.476845,237.143333 L709.042316,233.291444 L698.724012,230.002377 L688.540339,227.248131 L678.506848,225.001151 L668.63652,223.234528 L658.940032,221.922162 L649.426019,221.038878 L640.101306,220.560505 L630.971132,220.463936 M512,853.33523 L503.408907,853.137527 L494.863906,852.546534 L486.410342,851.568539 L478.092094,850.213831 L469.950913,848.49642 L462.025829,846.433669 L454.352664,844.045856 L446.963643,841.355676 L439.887118,838.387725 L433.147415,835.167966 L426.764769,831.723213 L420.755379,828.08064 L415.131527,824.267334 L409.901788,820.309894 L405.071275,816.234098 L400.641939,812.064619 L396.612887,807.824805 L392.980713,803.536522 L389.73983,799.220039 L386.882797,794.893969 L384.400624,790.575246 L382.283068,786.279138 L380.518893,782.019288 L379.096111,777.807778 L378.002197,773.655206 L377.224275,769.570779 L376.74928,765.562408 L376.564094,761.636813 L376.655664,757.799623 L377.011097,754.055478 L377.617738,750.40813 L378.463227,746.860535 L379.535553,743.414939 L380.823085,740.072969 L382.314597,736.8357 L383.999289,733.703735 L385.866788,730.677264 L387.907158,727.756124 L390.110894,724.939854 L392.468917,722.227741 L394.972564,719.61886 L397.613579,717.11212 L400.384093,714.706287 L403.276617,712.400023 L406.284021,710.191908 L409.399517,708.080462 L412.616646,706.064168 L415.929256,704.141488 L419.33149,702.310879 L422.817767,700.570804 L426.382762,698.919747 L430.021399,697.35622 L433.728824,695.878774 L437.500402,694.486002 L441.33169,693.17655 L445.218435,691.949117 L449.156552,690.802465 L453.142114,689.73542 L457.17134,688.746871 L461.240582,687.835781 L465.346315,687.001182 L469.485123,686.242179 L473.653692,685.557953 L477.848798,684.947759 L482.067295,684.41093 L486.306108,683.946876 L490.562225,683.555084 L494.832682,683.235121 L499.114562,682.986629 L503.404978,682.809333 L507.701072,682.703034 L512,682.667615 L516.298928,682.703034 L520.595022,682.809333 L524.885438,682.986629 L529.167318,683.235121 L533.437775,683.555084 L537.693892,683.946876 L541.932705,684.41093 L546.151202,684.947759 L550.346308,685.557953 L554.514877,686.242179 L558.653685,687.001182 L562.759418,687.835781 L566.82866,688.746871 L570.857886,689.73542 L574.843448,690.802465 L578.781565,691.949117 L582.66831,693.17655 L586.499598,694.486002 L590.271176,695.878774 L593.978601,697.35622 L597.617238,698.919747 L601.182233,700.570804 L604.66851,702.310879 L608.070744,704.141488 L611.383354,706.064168 L614.600483,708.080462 L617.715979,710.191908 L620.723383,712.400023 L623.615907,714.706287 L626.386421,717.11212 L629.027436,719.61886 L631.531083,722.227741 L633.889106,724.939854 L636.092842,727.756124 L638.133212,730.677264 L640.000711,733.703735 L641.685403,736.8357 L643.176915,740.072969 L644.464447,743.414939 L645.536773,746.860535 L646.382262,750.40813 L646.988903,754.055478 L647.344336,757.799623 L647.435906,761.636813 L647.25072,765.562408 L646.775725,769.570779 L645.997803,773.655206 L644.903889,777.807778 L643.481107,782.019288 L641.716932,786.279138 L639.599376,790.575246 L637.117203,794.893969 L634.26017,799.220039 L631.019287,803.536522 L627.387113,807.824805 L623.358061,812.064619 L618.928725,816.234098 L614.098212,820.309894 L608.868473,824.267334 L603.244621,828.08064 L597.235231,831.723213 L590.852585,835.167966 L584.112882,838.387725 L577.036357,841.355676 L569.647336,844.045856 L561.974171,846.433669 L554.049087,848.49642 L545.907906,850.213831 L537.589658,851.568539 L529.136094,852.546534 L520.591093,853.137527 L512,853.33523 M512,938.669037 L495.897021,938.281064 L479.876548,937.188997 L464.054403,935.343544 L448.471836,932.832887 L433.268598,929.633152 L418.439869,925.840059 L404.140303,921.454782 L390.318276,916.570765 L377.135989,911.211535 L364.498305,905.459134 L352.56982,899.355624 L341.218268,892.964542 L330.60754,886.342575 L320.576348,879.530315 L311.286296,872.595717 L302.555557,865.554631 L294.542775,858.483698 L287.05344,851.374391 L280.242985,844.310179 L273.910859,837.260032 L262.936501,823.418105 L253.925821,809.998394 L246.67448,797.103056 L240.987104,784.796019 L236.682384,773.111647 L233.595563,762.062189 L231.579138,751.643882 L230.502446,741.84179 L230.250601,732.633516 L230.723099,723.992001 L231.83231,715.887579 L233.501975,708.289456 L235.665796,701.16676 L238.266136,694.489243 L241.252864,688.22776 L244.582336,682.354555 L248.216504,676.843431 L252.122144,671.669819 L256.270191,666.81079 L260.63517,662.245028 L265.194703,657.952768 L269.929093,653.915722 L274.82096,650.116993 L279.854937,646.540983 L285.017405,643.17331 L290.296265,640.000711 L295.680744,637.010963 L301.161229,634.192801 L306.729122,631.535842 L312.376715,629.030514 L318.09708,626.667992 L323.883982,624.440138 L329.73179,622.339446 L335.635411,620.358989 L341.59023,618.492376 L347.59205,616.733707 L353.637052,615.077536 L359.721747,613.518835 L365.842945,612.052965 L371.997721,610.675641 L378.183386,609.382912 L384.397461,608.171131 L390.637657,607.036939 L396.901856,605.977241 L403.188089,604.98919 L409.494524,604.07017 L415.81945,603.21778 L422.161266,602.429825 L428.518468,601.704299 L434.889638,601.039377 L441.273435,600.433403 L447.668589,599.884885 L454.07389,599.392483 L460.488179,598.955006 L466.910348,598.571403 L473.339326,598.240757 L479.77408,597.962285 L486.213602,597.735329 L492.656912,597.559356 L499.103046,597.433954 L505.551055,597.358829 L512,597.333807 L518.448945,597.358829 L524.896954,597.433954 L531.343088,597.559356 L537.786398,597.735329 L544.22592,597.962285 L550.660674,598.240757 L557.089652,598.571403 L563.511821,598.955006 L569.92611,599.392483 L576.331411,599.884885 L582.726565,600.433403 L589.110362,601.039377 L595.481532,601.704299 L601.838734,602.429825 L608.18055,603.21778 L614.505476,604.07017 L620.811911,604.98919 L627.098144,605.977241 L633.362343,607.036939 L639.602539,608.171131 L645.816614,609.382912 L652.002279,610.675641 L658.157055,612.052965 L664.278253,613.518835 L670.362948,615.077536 L676.40795,616.733707 L682.40977,618.492376 L688.364589,620.358989 L694.26821,622.339446 L700.116018,624.440138 L705.90292,626.667992 L711.623285,629.030514 L717.270878,631.535842 L722.838771,634.192801 L728.319256,637.010963 L733.703735,640.000711 L738.982595,643.17331 L744.145063,646.540983 L749.17904,650.116993 L754.070907,653.915722 L758.805297,657.952768 L763.36483,662.245028 L767.729809,666.81079 L771.877856,671.669819 L775.783496,676.843431 L779.417664,682.354555 L782.747136,688.22776 L785.733864,694.489243 L788.334204,701.16676 L790.498025,708.289456 L792.16769,715.887579 L793.276901,723.992001 L793.749399,732.633516 L793.497554,741.84179 L792.420862,751.643882 L790.404437,762.062189 L787.317616,773.111647 L783.012896,784.796019 L777.32552,797.103056 L770.074179,809.998394 L761.063499,823.418105 L750.089141,837.260032 L743.757015,844.310179 L736.94656,851.374391 L729.457225,858.483698 L721.444443,865.554631 L712.713704,872.595717 L703.423652,879.530315 L693.39246,886.342575 L682.781732,892.964542 L671.43018,899.355624 L659.501695,905.459134 L646.864011,911.211535 L633.681724,916.570765 L619.859697,921.454782 L605.560131,925.840059 L590.731402,929.633152 L575.528164,932.832887 L559.945597,935.343544 L544.123452,937.188997 L528.102979,938.281064 L512,938.669037 M512,85.330963 L495.897021,85.718936 L479.876548,86.8110032 L464.054403,88.656456 L448.471836,91.1671133 L433.268598,94.3668482 L418.439869,98.1599412 L404.140303,102.545218 L390.318276,107.429235 L377.135989,112.788465 L364.498305,118.540866 L352.56982,124.644376 L341.218268,131.035458 L330.60754,137.657425 L320.576348,144.469685 L311.286296,151.404283 L302.555557,158.445369 L294.542775,165.516302 L287.05344,172.625609 L280.242985,179.689821 L273.910859,186.739968 L262.936501,200.581895 L253.925821,214.001606 L246.67448,226.896944 L240.987104,239.203981 L236.682384,250.888353 L233.595563,261.937811 L231.579138,272.356118 L230.502446,282.15821 L230.250601,291.366484 L230.723099,300.007999 L231.83231,308.112421 L233.501975,315.710544 L235.665796,322.83324 L238.266136,329.510757 L241.252864,335.77224 L244.582336,341.645445 L248.216504,347.156569 L252.122144,352.330181 L256.270191,357.18921 L260.63517,361.754972 L265.194703,366.047232 L269.929093,370.084278 L274.82096,373.883007 L279.854937,377.459017 L285.017405,380.82669 L290.296265,383.999289 L295.680744,386.989037 L301.161229,389.807199 L306.729122,392.464158 L312.376715,394.969486 L318.09708,397.332008 L323.883982,399.559862 L329.73179,401.660554 L335.635411,403.641011 L341.59023,405.507624 L347.59205,407.266293 L353.637052,408.922464 L359.721747,410.481165 L365.842945,411.947035 L371.997721,413.324359 L378.183386,414.617088 L384.397461,415.828869 L390.637657,416.963061 L396.901856,418.022759 L403.188089,419.01081 L409.494524,419.92983 L415.81945,420.78222 L422.161266,421.570175 L428.518468,422.295701 L434.889638,422.960623 L441.273435,423.566597 L447.668589,424.115115 L454.07389,424.607517 L460.488179,425.044994 L466.910348,425.428597 L473.339326,425.759243 L479.77408,426.037715 L486.213602,426.264671 L492.656912,426.440644 L499.103046,426.566046 L505.551055,426.641171 L512,426.666193 L518.448945,426.641171 L524.896954,426.566046 L531.343088,426.440644 L537.786398,426.264671 L544.22592,426.037715 L550.660674,425.759243 L557.089652,425.428597 L563.511821,425.044994 L569.92611,424.607517 L576.331411,424.115115 L582.726565,423.566597 L589.110362,422.960623 L595.481532,422.295701 L601.838734,421.570175 L608.18055,420.78222 L614.505476,419.92983 L620.811911,419.01081 L627.098144,418.022759 L633.362343,416.963061 L639.602539,415.828869 L645.816614,414.617088 L652.002279,413.324359 L658.157055,411.947035 L664.278253,410.481165 L670.362948,408.922464 L676.40795,407.266293 L682.40977,405.507624 L688.364589,403.641011 L694.26821,401.660554 L700.116018,399.559862 L705.90292,397.332008 L711.623285,394.969486 L717.270878,392.464158 L722.838771,389.807199 L728.319256,386.989037 L733.703735,383.999289 L738.982595,380.82669 L744.145063,377.459017 L749.17904,373.883007 L754.070907,370.084278 L758.805297,366.047232 L763.36483,361.754972 L767.729809,357.18921 L771.877856,352.330181 L775.783496,347.156569 L779.417664,341.645445 L782.747136,335.77224 L785.733864,329.510757 L788.334204,322.83324 L790.498025,315.710544 L792.16769,308.112421 L793.276901,300.007999 L793.749399,291.366484 L793.497554,282.15821 L792.420862,272.356118 L790.404437,261.937811 L787.317616,250.888353 L783.012896,239.203981 L777.32552,226.896944 L770.074179,214.001606 L761.063499,200.581895 L750.089141,186.739968 L743.757015,179.689821 L736.94656,172.625609 L729.457225,165.516302 L721.444443,158.445369 L712.713704,151.404283 L703.423652,144.469685 L693.39246,137.657425 L682.781732,131.035458 L671.43018,124.644376 L659.501695,118.540866 L646.864011,112.788465 L633.681724,107.429235 L619.859697,102.545218 L605.560131,98.1599412 L590.731402,94.3668482 L575.528164,91.1671133 L559.945597,88.656456 L544.123452,86.8110032 L528.102979,85.718936 L512,85.330963 M512,170.66477 L503.408907,170.862473 L494.863906,171.453466 L486.410342,172.431461 L478.092094,173.786169 L469.950913,175.50358 L462.025829,177.566331 L454.352664,179.954144 L446.963643,182.644324 L439.887118,185.612275 L433.147415,188.832034 L426.764769,192.276787 L420.755379,195.91936 L415.131527,199.732666 L409.901788,203.690106 L405.071275,207.765902 L400.641939,211.935381 L396.612887,216.175195 L392.980713,220.463478 L389.73983,224.779961 L386.882797,229.106031 L384.400624,233.424754 L382.283068,237.720862 L380.518893,241.980712 L379.096111,246.192222 L378.002197,250.344794 L377.224275,254.429221 L376.74928,258.437592 L376.564094,262.363187 L376.655664,266.200377 L377.011097,269.944522 L377.617738,273.59187 L378.463227,277.139465 L379.535553,280.585061 L380.823085,283.927031 L382.314597,287.1643 L383.999289,290.296265 L385.866788,293.322736 L387.907158,296.243876 L390.110894,299.060146 L392.468917,301.772259 L394.972564,304.38114 L397.613579,306.88788 L400.384093,309.293713 L403.276617,311.599977 L406.284021,313.808092 L409.399517,315.919538 L412.616646,317.935832 L415.929256,319.858512 L419.33149,321.689121 L422.817767,323.429196 L426.382762,325.080253 L430.021399,326.64378 L433.728824,328.121226 L437.500402,329.513998 L441.33169,330.82345 L445.218435,332.050883 L449.156552,333.197535 L453.142114,334.26458 L457.17134,335.253129 L461.240582,336.164219 L465.346315,336.998818 L469.485123,337.757821 L473.653692,338.442047 L477.848798,339.052241 L482.067295,339.58907 L486.306108,340.053124 L490.562225,340.444916 L494.832682,340.764879 L499.114562,341.013371 L503.404978,341.190667 L507.701072,341.296966 L512,341.332385 L516.298928,341.296966 L520.595022,341.190667 L524.885438,341.013371 L529.167318,340.764879 L533.437775,340.444916 L537.693892,340.053124 L541.932705,339.58907 L546.151202,339.052241 L550.346308,338.442047 L554.514877,337.757821 L558.653685,336.998818 L562.759418,336.164219 L566.82866,335.253129 L570.857886,334.26458 L574.843448,333.197535 L578.781565,332.050883 L582.66831,330.82345 L586.499598,329.513998 L590.271176,328.121226 L593.978601,326.64378 L597.617238,325.080253 L601.182233,323.429196 L604.66851,321.689121 L608.070744,319.858512 L611.383354,317.935832 L614.600483,315.919538 L617.715979,313.808092 L620.723383,311.599977 L623.615907,309.293713 L626.386421,306.88788 L629.027436,304.38114 L631.531083,301.772259 L633.889106,299.060146 L636.092842,296.243876 L638.133212,293.322736 L640.000711,290.296265 L641.685403,287.1643 L643.176915,283.927031 L644.464447,280.585061 L645.536773,277.139465 L646.382262,273.59187 L646.988903,269.944522 L647.344336,266.200377 L647.435906,262.363187 L647.25072,258.437592 L646.775725,254.429221 L645.997803,250.344794 L644.903889,246.192222 L643.481107,241.980712 L641.716932,237.720862 L639.599376,233.424754 L637.117203,229.106031 L634.26017,224.779961 L631.019287,220.463478 L627.387113,216.175195 L623.358061,211.935381 L618.928725,207.765902 L614.098212,203.690106 L608.868473,199.732666 L603.244621,195.91936 L597.235231,192.276787 L590.852585,188.832034 L584.112882,185.612275 L577.036357,182.644324 L569.647336,179.954144 L561.974171,177.566331 L554.049087,175.50358 L545.907906,173.786169 L537.589658,172.431461 L529.136094,171.453466 L520.591093,170.862473 L512,170.66477" id="Shape"></path>
        </g>
    </g>
</svg>