<?xml version="1.0" encoding="UTF-8"?>
<svg width="1024px" height="1024px" viewBox="0 0 1024 1024" version="1.1" xmlns="http://www.w3.org/2000/svg" xmlns:xlink="http://www.w3.org/1999/xlink">
    <title>neutron</title>
    <g id="neutron" stroke="none" stroke-width="1" fill="none" fill-rule="evenodd">
        <g id="Group" transform="translate(3, 0)" fill="#FFFFFF">
            <path d="M1019,0 L72.178369,0 L341.729588,319.351415 C386.546097,279.907051 445.245176,256.000927 509.500618,256.000927 C650.193874,256.000927 764.248456,370.616605 764.248456,512.001854 C764.248456,575.776853 741.045994,634.104262 702.651077,678.922066 L1019,952.457117 L1019,0 Z M894.273644,1024 L643.75252,729.610118 C604.772754,753.943844 558.770493,768.001545 509.500618,768.001545 C368.806126,768.001545 254.750309,653.389574 254.750309,512.001854 C254.750309,462.935844 268.486512,417.094145 292.305318,378.147826 L0,122.353284 L0,1024 L894.273644,1024 Z" id="Shape"></path>
        </g>
    </g>
</svg>